<?xml version="1.0" encoding="utf-8"?>
<svg xmlns="http://www.w3.org/2000/svg" version="1.1" id="Layer_1" x="0px" y="0px" width="120.93578" height="38" viewBox="-6 -2.501 120.93578 38" enable-background="new -6 -2.501 92 38">
  <g id="g3337" transform="translate(-0.313,7.2479246e-8)">
    <path d="M 15.541,32.485 C 5.162,32.485 -3.254,24.07 -3.254,13.69 -3.254,6.795 0.462,0.769 5.999,-2.501 -0.892,0.624 -5.687,7.555 -5.687,15.614 c 0,10.981 8.902,19.885 19.885,19.885 10.477,0 19.057,-8.106 19.824,-18.387 -1.61,8.745 -9.27,15.373 -18.481,15.373 z" id="path3339" style="fill:#6ac045"/>
    <circle cx="19.497" cy="23.160999" id="circle3341" r="5.006" style="fill:#6ac045"/>
    <circle cx="6.4330001" cy="19.749001" id="circle3343" r="5.0079999" style="fill:#6ac045"/>
    <circle cx="8.4650002" cy="6.8319998" id="circle3345" r="5.0079999" style="fill:#6ac045"/>
    <circle cx="14.489" cy="14.743" id="circle3347" r="1.888" style="fill:#6ac045"/>
    <g id="g3349">
      <path d="M 32.618,28.049 34.657,17.253 29.516,1.59 l 6.046,0 2.787,10.196 6.673,-10.196 6.751,0 -11.422,15.546 -2.081,10.041 -5.652,0.872 z" id="path3351" style="fill:#6ac045"/>
      <path d="m 56.601,6.537 -9.642,0 3.765,-4.946 21.681,0 c 0,0 -3.704,2.292 -4.248,4.946 l -5.901,0 -4.044,20.64 -5.651,-0.435 4.04,-20.205 z" id="path3353" style="fill:#6ac045"/>
      <path d="m 67.63,21.924 c 1.569,0.941 3.809,1.688 6.243,1.688 2.197,0 4.199,-1.021 4.199,-3.101 0,-1.49 -1.138,-2.472 -3.573,-3.728 -2.827,-1.531 -5.496,-3.572 -5.496,-7.027 0,-5.34 4.674,-8.597 10.442,-8.597 3.22,0 5.104,0.706 6.241,1.333 L 83.92,7.203 c -0.865,-0.47 -2.748,-1.216 -4.944,-1.177 -2.632,0 -4.008,1.335 -4.008,2.789 0,1.529 1.608,2.472 3.848,3.728 3.22,1.688 5.26,3.847 5.26,6.987 0,5.888 -4.869,8.909 -10.757,8.909 -3.688,0 -6.319,-0.94 -7.575,-1.884 l 1.886,-4.631 z" id="path3355" style="fill:#6ac045"/>
    </g>
    <path d="m 16.488,35.367 c 1.144,0.072 30.557,-6.929 59.615,0.132 0,0 -16.943,-6.134 -37.771,-4.253 0,0 12.188,-3.197 38.858,1.588 0,0 -26.56,-8.367 -51.317,-1.128 -3.655,0.889 -10.527,3.59 -9.385,3.661 z" id="path3357" style="fill:#6ac045"/>
    <text style="fill: rgb(106, 192, 69); font-family: &quot;Arial&quot;, sans-serif; font-size: 28px; font-style: italic; font-weight: 700; white-space: pre;" transform="matrix(0.629764, 0, 0, 0.61243, 54.717716, 8.402728)" x="47.986" y="29.238">.LT</text>
    <text style="fill: rgb(106, 192, 69); fill-opacity: 0.6; font-family: &quot;Arial&quot;, sans-serif; font-size: 28px; font-style: italic; font-weight: 700; white-space: pre; text-decoration: line-through color(srgb 1 1 1 / 0.8);" transform="matrix(0.308837, 0, 0, 0.262135, 59.874397, 26.544985)" x="85.832" y="32.472">.MX</text>
  </g>
</svg>